<mxfile host="app.diagrams.net" modified="2024-06-06T09:14:52.816Z" agent="Mozilla/5.0 (Windows NT 10.0; Win64; x64) AppleWebKit/537.36 (KHTML, like Gecko) Chrome/125.0.0.0 Safari/537.36" etag="jPjmcVI0DkATrdSr9hA0" version="24.4.14" type="github">
  <diagram name="Page-1" id="Azx6MxXu8d3ZNMTHgRY9">
    <mxGraphModel dx="1050" dy="986" grid="1" gridSize="10" guides="1" tooltips="1" connect="1" arrows="1" fold="1" page="1" pageScale="1" pageWidth="827" pageHeight="1169" math="0" shadow="0">
      <root>
        <mxCell id="0" />
        <mxCell id="1" parent="0" />
        <mxCell id="9blI58XOAfm6yzByAUCA-56" value="E1" style="text;html=1;align=center;verticalAlign=middle;resizable=0;points=[];autosize=1;strokeColor=none;fillColor=none;" vertex="1" parent="1">
          <mxGeometry x="55" y="60" width="40" height="30" as="geometry" />
        </mxCell>
        <mxCell id="9blI58XOAfm6yzByAUCA-1" value="" style="shape=table;startSize=0;container=1;collapsible=0;childLayout=tableLayout;fontSize=16;" vertex="1" parent="1">
          <mxGeometry x="40" y="210" width="808.12" height="60" as="geometry" />
        </mxCell>
        <mxCell id="9blI58XOAfm6yzByAUCA-2" value="" style="shape=tableRow;horizontal=0;startSize=0;swimlaneHead=0;swimlaneBody=0;strokeColor=inherit;top=0;left=0;bottom=0;right=0;collapsible=0;dropTarget=0;fillColor=none;points=[[0,0.5],[1,0.5]];portConstraint=eastwest;fontSize=16;" vertex="1" parent="9blI58XOAfm6yzByAUCA-1">
          <mxGeometry width="808.12" height="60" as="geometry" />
        </mxCell>
        <mxCell id="9blI58XOAfm6yzByAUCA-37" value="&lt;u&gt;A4&lt;/u&gt;" style="shape=partialRectangle;html=1;whiteSpace=wrap;connectable=0;strokeColor=inherit;overflow=hidden;fillColor=none;top=0;left=0;bottom=0;right=0;pointerEvents=1;fontSize=16;" vertex="1" parent="9blI58XOAfm6yzByAUCA-2">
          <mxGeometry width="89" height="60" as="geometry">
            <mxRectangle width="89" height="60" as="alternateBounds" />
          </mxGeometry>
        </mxCell>
        <mxCell id="9blI58XOAfm6yzByAUCA-3" value="A5" style="shape=partialRectangle;html=1;whiteSpace=wrap;connectable=0;strokeColor=inherit;overflow=hidden;fillColor=none;top=0;left=0;bottom=0;right=0;pointerEvents=1;fontSize=16;" vertex="1" parent="9blI58XOAfm6yzByAUCA-2">
          <mxGeometry x="89" width="89" height="60" as="geometry">
            <mxRectangle width="89" height="60" as="alternateBounds" />
          </mxGeometry>
        </mxCell>
        <mxCell id="9blI58XOAfm6yzByAUCA-4" value="A6" style="shape=partialRectangle;html=1;whiteSpace=wrap;connectable=0;strokeColor=inherit;overflow=hidden;fillColor=none;top=0;left=0;bottom=0;right=0;pointerEvents=1;fontSize=16;" vertex="1" parent="9blI58XOAfm6yzByAUCA-2">
          <mxGeometry x="178" width="90" height="60" as="geometry">
            <mxRectangle width="90" height="60" as="alternateBounds" />
          </mxGeometry>
        </mxCell>
        <mxCell id="9blI58XOAfm6yzByAUCA-5" value="A11" style="shape=partialRectangle;html=1;whiteSpace=wrap;connectable=0;strokeColor=inherit;overflow=hidden;fillColor=none;top=0;left=0;bottom=0;right=0;pointerEvents=1;fontSize=16;" vertex="1" parent="9blI58XOAfm6yzByAUCA-2">
          <mxGeometry x="268" width="90" height="60" as="geometry">
            <mxRectangle width="90" height="60" as="alternateBounds" />
          </mxGeometry>
        </mxCell>
        <mxCell id="9blI58XOAfm6yzByAUCA-40" value="A13" style="shape=partialRectangle;html=1;whiteSpace=wrap;connectable=0;strokeColor=inherit;overflow=hidden;fillColor=none;top=0;left=0;bottom=0;right=0;pointerEvents=1;fontSize=16;" vertex="1" parent="9blI58XOAfm6yzByAUCA-2">
          <mxGeometry x="358" width="90" height="60" as="geometry">
            <mxRectangle width="90" height="60" as="alternateBounds" />
          </mxGeometry>
        </mxCell>
        <mxCell id="9blI58XOAfm6yzByAUCA-41" value="" style="shape=partialRectangle;html=1;whiteSpace=wrap;connectable=0;strokeColor=inherit;overflow=hidden;fillColor=none;top=0;left=0;bottom=0;right=0;pointerEvents=1;fontSize=16;" vertex="1" parent="9blI58XOAfm6yzByAUCA-2">
          <mxGeometry x="448" width="90" height="60" as="geometry">
            <mxRectangle width="90" height="60" as="alternateBounds" />
          </mxGeometry>
        </mxCell>
        <mxCell id="9blI58XOAfm6yzByAUCA-42" style="shape=partialRectangle;html=1;whiteSpace=wrap;connectable=0;strokeColor=inherit;overflow=hidden;fillColor=none;top=0;left=0;bottom=0;right=0;pointerEvents=1;fontSize=16;" vertex="1" parent="9blI58XOAfm6yzByAUCA-2">
          <mxGeometry x="538" width="90" height="60" as="geometry">
            <mxRectangle width="90" height="60" as="alternateBounds" />
          </mxGeometry>
        </mxCell>
        <mxCell id="9blI58XOAfm6yzByAUCA-43" value="" style="shape=partialRectangle;html=1;whiteSpace=wrap;connectable=0;strokeColor=inherit;overflow=hidden;fillColor=none;top=0;left=0;bottom=0;right=0;pointerEvents=1;fontSize=16;" vertex="1" parent="9blI58XOAfm6yzByAUCA-2">
          <mxGeometry x="628" width="90" height="60" as="geometry">
            <mxRectangle width="90" height="60" as="alternateBounds" />
          </mxGeometry>
        </mxCell>
        <mxCell id="9blI58XOAfm6yzByAUCA-44" value="" style="shape=partialRectangle;html=1;whiteSpace=wrap;connectable=0;strokeColor=inherit;overflow=hidden;fillColor=none;top=0;left=0;bottom=0;right=0;pointerEvents=1;fontSize=16;" vertex="1" parent="9blI58XOAfm6yzByAUCA-2">
          <mxGeometry x="718" width="90" height="60" as="geometry">
            <mxRectangle width="90" height="60" as="alternateBounds" />
          </mxGeometry>
        </mxCell>
        <mxCell id="9blI58XOAfm6yzByAUCA-38" value="E2" style="text;html=1;align=center;verticalAlign=middle;resizable=0;points=[];autosize=1;strokeColor=none;fillColor=none;" vertex="1" parent="1">
          <mxGeometry x="55" y="180" width="40" height="30" as="geometry" />
        </mxCell>
        <mxCell id="9blI58XOAfm6yzByAUCA-45" value="" style="shape=table;startSize=0;container=1;collapsible=0;childLayout=tableLayout;fontSize=16;" vertex="1" parent="1">
          <mxGeometry x="40" y="90" width="808.12" height="60" as="geometry" />
        </mxCell>
        <mxCell id="9blI58XOAfm6yzByAUCA-46" value="" style="shape=tableRow;horizontal=0;startSize=0;swimlaneHead=0;swimlaneBody=0;strokeColor=inherit;top=0;left=0;bottom=0;right=0;collapsible=0;dropTarget=0;fillColor=none;points=[[0,0.5],[1,0.5]];portConstraint=eastwest;fontSize=16;" vertex="1" parent="9blI58XOAfm6yzByAUCA-45">
          <mxGeometry width="808.12" height="60" as="geometry" />
        </mxCell>
        <mxCell id="9blI58XOAfm6yzByAUCA-47" value="&lt;u&gt;A1&lt;/u&gt;" style="shape=partialRectangle;html=1;whiteSpace=wrap;connectable=0;strokeColor=inherit;overflow=hidden;fillColor=none;top=0;left=0;bottom=0;right=0;pointerEvents=1;fontSize=16;" vertex="1" parent="9blI58XOAfm6yzByAUCA-46">
          <mxGeometry width="89" height="60" as="geometry">
            <mxRectangle width="89" height="60" as="alternateBounds" />
          </mxGeometry>
        </mxCell>
        <mxCell id="9blI58XOAfm6yzByAUCA-48" value="A2" style="shape=partialRectangle;html=1;whiteSpace=wrap;connectable=0;strokeColor=inherit;overflow=hidden;fillColor=none;top=0;left=0;bottom=0;right=0;pointerEvents=1;fontSize=16;" vertex="1" parent="9blI58XOAfm6yzByAUCA-46">
          <mxGeometry x="89" width="89" height="60" as="geometry">
            <mxRectangle width="89" height="60" as="alternateBounds" />
          </mxGeometry>
        </mxCell>
        <mxCell id="9blI58XOAfm6yzByAUCA-49" value="A7" style="shape=partialRectangle;html=1;whiteSpace=wrap;connectable=0;strokeColor=inherit;overflow=hidden;fillColor=none;top=0;left=0;bottom=0;right=0;pointerEvents=1;fontSize=16;" vertex="1" parent="9blI58XOAfm6yzByAUCA-46">
          <mxGeometry x="178" width="90" height="60" as="geometry">
            <mxRectangle width="90" height="60" as="alternateBounds" />
          </mxGeometry>
        </mxCell>
        <mxCell id="9blI58XOAfm6yzByAUCA-50" value="" style="shape=partialRectangle;html=1;whiteSpace=wrap;connectable=0;strokeColor=inherit;overflow=hidden;fillColor=none;top=0;left=0;bottom=0;right=0;pointerEvents=1;fontSize=16;" vertex="1" parent="9blI58XOAfm6yzByAUCA-46">
          <mxGeometry x="268" width="90" height="60" as="geometry">
            <mxRectangle width="90" height="60" as="alternateBounds" />
          </mxGeometry>
        </mxCell>
        <mxCell id="9blI58XOAfm6yzByAUCA-51" value="" style="shape=partialRectangle;html=1;whiteSpace=wrap;connectable=0;strokeColor=inherit;overflow=hidden;fillColor=none;top=0;left=0;bottom=0;right=0;pointerEvents=1;fontSize=16;" vertex="1" parent="9blI58XOAfm6yzByAUCA-46">
          <mxGeometry x="358" width="90" height="60" as="geometry">
            <mxRectangle width="90" height="60" as="alternateBounds" />
          </mxGeometry>
        </mxCell>
        <mxCell id="9blI58XOAfm6yzByAUCA-52" value="" style="shape=partialRectangle;html=1;whiteSpace=wrap;connectable=0;strokeColor=inherit;overflow=hidden;fillColor=none;top=0;left=0;bottom=0;right=0;pointerEvents=1;fontSize=16;" vertex="1" parent="9blI58XOAfm6yzByAUCA-46">
          <mxGeometry x="448" width="90" height="60" as="geometry">
            <mxRectangle width="90" height="60" as="alternateBounds" />
          </mxGeometry>
        </mxCell>
        <mxCell id="9blI58XOAfm6yzByAUCA-53" style="shape=partialRectangle;html=1;whiteSpace=wrap;connectable=0;strokeColor=inherit;overflow=hidden;fillColor=none;top=0;left=0;bottom=0;right=0;pointerEvents=1;fontSize=16;" vertex="1" parent="9blI58XOAfm6yzByAUCA-46">
          <mxGeometry x="538" width="90" height="60" as="geometry">
            <mxRectangle width="90" height="60" as="alternateBounds" />
          </mxGeometry>
        </mxCell>
        <mxCell id="9blI58XOAfm6yzByAUCA-54" value="" style="shape=partialRectangle;html=1;whiteSpace=wrap;connectable=0;strokeColor=inherit;overflow=hidden;fillColor=none;top=0;left=0;bottom=0;right=0;pointerEvents=1;fontSize=16;" vertex="1" parent="9blI58XOAfm6yzByAUCA-46">
          <mxGeometry x="628" width="90" height="60" as="geometry">
            <mxRectangle width="90" height="60" as="alternateBounds" />
          </mxGeometry>
        </mxCell>
        <mxCell id="9blI58XOAfm6yzByAUCA-55" value="" style="shape=partialRectangle;html=1;whiteSpace=wrap;connectable=0;strokeColor=inherit;overflow=hidden;fillColor=none;top=0;left=0;bottom=0;right=0;pointerEvents=1;fontSize=16;" vertex="1" parent="9blI58XOAfm6yzByAUCA-46">
          <mxGeometry x="718" width="90" height="60" as="geometry">
            <mxRectangle width="90" height="60" as="alternateBounds" />
          </mxGeometry>
        </mxCell>
        <mxCell id="9blI58XOAfm6yzByAUCA-72" value="" style="shape=table;startSize=0;container=1;collapsible=0;childLayout=tableLayout;fontSize=16;" vertex="1" parent="1">
          <mxGeometry x="40" y="330" width="808.12" height="60" as="geometry" />
        </mxCell>
        <mxCell id="9blI58XOAfm6yzByAUCA-73" value="" style="shape=tableRow;horizontal=0;startSize=0;swimlaneHead=0;swimlaneBody=0;strokeColor=inherit;top=0;left=0;bottom=0;right=0;collapsible=0;dropTarget=0;fillColor=none;points=[[0,0.5],[1,0.5]];portConstraint=eastwest;fontSize=16;" vertex="1" parent="9blI58XOAfm6yzByAUCA-72">
          <mxGeometry width="808.12" height="60" as="geometry" />
        </mxCell>
        <mxCell id="9blI58XOAfm6yzByAUCA-74" value="&lt;u&gt;A7&lt;/u&gt;" style="shape=partialRectangle;html=1;whiteSpace=wrap;connectable=0;strokeColor=inherit;overflow=hidden;fillColor=none;top=0;left=0;bottom=0;right=0;pointerEvents=1;fontSize=16;" vertex="1" parent="9blI58XOAfm6yzByAUCA-73">
          <mxGeometry width="89" height="60" as="geometry">
            <mxRectangle width="89" height="60" as="alternateBounds" />
          </mxGeometry>
        </mxCell>
        <mxCell id="9blI58XOAfm6yzByAUCA-75" value="A8" style="shape=partialRectangle;html=1;whiteSpace=wrap;connectable=0;strokeColor=inherit;overflow=hidden;fillColor=none;top=0;left=0;bottom=0;right=0;pointerEvents=1;fontSize=16;" vertex="1" parent="9blI58XOAfm6yzByAUCA-73">
          <mxGeometry x="89" width="89" height="60" as="geometry">
            <mxRectangle width="89" height="60" as="alternateBounds" />
          </mxGeometry>
        </mxCell>
        <mxCell id="9blI58XOAfm6yzByAUCA-76" value="A11" style="shape=partialRectangle;html=1;whiteSpace=wrap;connectable=0;strokeColor=inherit;overflow=hidden;fillColor=none;top=0;left=0;bottom=0;right=0;pointerEvents=1;fontSize=16;" vertex="1" parent="9blI58XOAfm6yzByAUCA-73">
          <mxGeometry x="178" width="90" height="60" as="geometry">
            <mxRectangle width="90" height="60" as="alternateBounds" />
          </mxGeometry>
        </mxCell>
        <mxCell id="9blI58XOAfm6yzByAUCA-77" value="" style="shape=partialRectangle;html=1;whiteSpace=wrap;connectable=0;strokeColor=inherit;overflow=hidden;fillColor=none;top=0;left=0;bottom=0;right=0;pointerEvents=1;fontSize=16;" vertex="1" parent="9blI58XOAfm6yzByAUCA-73">
          <mxGeometry x="268" width="90" height="60" as="geometry">
            <mxRectangle width="90" height="60" as="alternateBounds" />
          </mxGeometry>
        </mxCell>
        <mxCell id="9blI58XOAfm6yzByAUCA-78" value="" style="shape=partialRectangle;html=1;whiteSpace=wrap;connectable=0;strokeColor=inherit;overflow=hidden;fillColor=none;top=0;left=0;bottom=0;right=0;pointerEvents=1;fontSize=16;" vertex="1" parent="9blI58XOAfm6yzByAUCA-73">
          <mxGeometry x="358" width="90" height="60" as="geometry">
            <mxRectangle width="90" height="60" as="alternateBounds" />
          </mxGeometry>
        </mxCell>
        <mxCell id="9blI58XOAfm6yzByAUCA-79" value="" style="shape=partialRectangle;html=1;whiteSpace=wrap;connectable=0;strokeColor=inherit;overflow=hidden;fillColor=none;top=0;left=0;bottom=0;right=0;pointerEvents=1;fontSize=16;" vertex="1" parent="9blI58XOAfm6yzByAUCA-73">
          <mxGeometry x="448" width="90" height="60" as="geometry">
            <mxRectangle width="90" height="60" as="alternateBounds" />
          </mxGeometry>
        </mxCell>
        <mxCell id="9blI58XOAfm6yzByAUCA-80" style="shape=partialRectangle;html=1;whiteSpace=wrap;connectable=0;strokeColor=inherit;overflow=hidden;fillColor=none;top=0;left=0;bottom=0;right=0;pointerEvents=1;fontSize=16;" vertex="1" parent="9blI58XOAfm6yzByAUCA-73">
          <mxGeometry x="538" width="90" height="60" as="geometry">
            <mxRectangle width="90" height="60" as="alternateBounds" />
          </mxGeometry>
        </mxCell>
        <mxCell id="9blI58XOAfm6yzByAUCA-81" value="" style="shape=partialRectangle;html=1;whiteSpace=wrap;connectable=0;strokeColor=inherit;overflow=hidden;fillColor=none;top=0;left=0;bottom=0;right=0;pointerEvents=1;fontSize=16;" vertex="1" parent="9blI58XOAfm6yzByAUCA-73">
          <mxGeometry x="628" width="90" height="60" as="geometry">
            <mxRectangle width="90" height="60" as="alternateBounds" />
          </mxGeometry>
        </mxCell>
        <mxCell id="9blI58XOAfm6yzByAUCA-82" value="" style="shape=partialRectangle;html=1;whiteSpace=wrap;connectable=0;strokeColor=inherit;overflow=hidden;fillColor=none;top=0;left=0;bottom=0;right=0;pointerEvents=1;fontSize=16;" vertex="1" parent="9blI58XOAfm6yzByAUCA-73">
          <mxGeometry x="718" width="90" height="60" as="geometry">
            <mxRectangle width="90" height="60" as="alternateBounds" />
          </mxGeometry>
        </mxCell>
        <mxCell id="9blI58XOAfm6yzByAUCA-83" value="E3" style="text;html=1;align=center;verticalAlign=middle;resizable=0;points=[];autosize=1;strokeColor=none;fillColor=none;" vertex="1" parent="1">
          <mxGeometry x="55" y="300" width="40" height="30" as="geometry" />
        </mxCell>
        <mxCell id="9blI58XOAfm6yzByAUCA-84" value="" style="shape=table;startSize=0;container=1;collapsible=0;childLayout=tableLayout;fontSize=16;" vertex="1" parent="1">
          <mxGeometry x="40" y="450" width="808.12" height="70" as="geometry" />
        </mxCell>
        <mxCell id="9blI58XOAfm6yzByAUCA-85" value="" style="shape=tableRow;horizontal=0;startSize=0;swimlaneHead=0;swimlaneBody=0;strokeColor=inherit;top=0;left=0;bottom=0;right=0;collapsible=0;dropTarget=0;fillColor=none;points=[[0,0.5],[1,0.5]];portConstraint=eastwest;fontSize=16;" vertex="1" parent="9blI58XOAfm6yzByAUCA-84">
          <mxGeometry width="808.12" height="70" as="geometry" />
        </mxCell>
        <mxCell id="9blI58XOAfm6yzByAUCA-86" value="&lt;u&gt;A11&lt;/u&gt;" style="shape=partialRectangle;html=1;whiteSpace=wrap;connectable=0;strokeColor=inherit;overflow=hidden;fillColor=none;top=0;left=0;bottom=0;right=0;pointerEvents=1;fontSize=16;" vertex="1" parent="9blI58XOAfm6yzByAUCA-85">
          <mxGeometry width="89" height="70" as="geometry">
            <mxRectangle width="89" height="70" as="alternateBounds" />
          </mxGeometry>
        </mxCell>
        <mxCell id="9blI58XOAfm6yzByAUCA-87" value="A12" style="shape=partialRectangle;html=1;whiteSpace=wrap;connectable=0;strokeColor=inherit;overflow=hidden;fillColor=none;top=0;left=0;bottom=0;right=0;pointerEvents=1;fontSize=16;" vertex="1" parent="9blI58XOAfm6yzByAUCA-85">
          <mxGeometry x="89" width="89" height="70" as="geometry">
            <mxRectangle width="89" height="70" as="alternateBounds" />
          </mxGeometry>
        </mxCell>
        <mxCell id="9blI58XOAfm6yzByAUCA-88" value="" style="shape=partialRectangle;html=1;whiteSpace=wrap;connectable=0;strokeColor=inherit;overflow=hidden;fillColor=none;top=0;left=0;bottom=0;right=0;pointerEvents=1;fontSize=16;" vertex="1" parent="9blI58XOAfm6yzByAUCA-85">
          <mxGeometry x="178" width="90" height="70" as="geometry">
            <mxRectangle width="90" height="70" as="alternateBounds" />
          </mxGeometry>
        </mxCell>
        <mxCell id="9blI58XOAfm6yzByAUCA-89" value="" style="shape=partialRectangle;html=1;whiteSpace=wrap;connectable=0;strokeColor=inherit;overflow=hidden;fillColor=none;top=0;left=0;bottom=0;right=0;pointerEvents=1;fontSize=16;" vertex="1" parent="9blI58XOAfm6yzByAUCA-85">
          <mxGeometry x="268" width="90" height="70" as="geometry">
            <mxRectangle width="90" height="70" as="alternateBounds" />
          </mxGeometry>
        </mxCell>
        <mxCell id="9blI58XOAfm6yzByAUCA-90" value="" style="shape=partialRectangle;html=1;whiteSpace=wrap;connectable=0;strokeColor=inherit;overflow=hidden;fillColor=none;top=0;left=0;bottom=0;right=0;pointerEvents=1;fontSize=16;" vertex="1" parent="9blI58XOAfm6yzByAUCA-85">
          <mxGeometry x="358" width="90" height="70" as="geometry">
            <mxRectangle width="90" height="70" as="alternateBounds" />
          </mxGeometry>
        </mxCell>
        <mxCell id="9blI58XOAfm6yzByAUCA-91" value="" style="shape=partialRectangle;html=1;whiteSpace=wrap;connectable=0;strokeColor=inherit;overflow=hidden;fillColor=none;top=0;left=0;bottom=0;right=0;pointerEvents=1;fontSize=16;" vertex="1" parent="9blI58XOAfm6yzByAUCA-85">
          <mxGeometry x="448" width="90" height="70" as="geometry">
            <mxRectangle width="90" height="70" as="alternateBounds" />
          </mxGeometry>
        </mxCell>
        <mxCell id="9blI58XOAfm6yzByAUCA-92" style="shape=partialRectangle;html=1;whiteSpace=wrap;connectable=0;strokeColor=inherit;overflow=hidden;fillColor=none;top=0;left=0;bottom=0;right=0;pointerEvents=1;fontSize=16;" vertex="1" parent="9blI58XOAfm6yzByAUCA-85">
          <mxGeometry x="538" width="90" height="70" as="geometry">
            <mxRectangle width="90" height="70" as="alternateBounds" />
          </mxGeometry>
        </mxCell>
        <mxCell id="9blI58XOAfm6yzByAUCA-93" value="" style="shape=partialRectangle;html=1;whiteSpace=wrap;connectable=0;strokeColor=inherit;overflow=hidden;fillColor=none;top=0;left=0;bottom=0;right=0;pointerEvents=1;fontSize=16;" vertex="1" parent="9blI58XOAfm6yzByAUCA-85">
          <mxGeometry x="628" width="90" height="70" as="geometry">
            <mxRectangle width="90" height="70" as="alternateBounds" />
          </mxGeometry>
        </mxCell>
        <mxCell id="9blI58XOAfm6yzByAUCA-94" value="" style="shape=partialRectangle;html=1;whiteSpace=wrap;connectable=0;strokeColor=inherit;overflow=hidden;fillColor=none;top=0;left=0;bottom=0;right=0;pointerEvents=1;fontSize=16;" vertex="1" parent="9blI58XOAfm6yzByAUCA-85">
          <mxGeometry x="718" width="90" height="70" as="geometry">
            <mxRectangle width="90" height="70" as="alternateBounds" />
          </mxGeometry>
        </mxCell>
        <mxCell id="9blI58XOAfm6yzByAUCA-95" value="E4" style="text;html=1;align=center;verticalAlign=middle;resizable=0;points=[];autosize=1;strokeColor=none;fillColor=none;" vertex="1" parent="1">
          <mxGeometry x="55" y="420" width="40" height="30" as="geometry" />
        </mxCell>
        <mxCell id="9blI58XOAfm6yzByAUCA-96" value="" style="shape=table;startSize=0;container=1;collapsible=0;childLayout=tableLayout;fontSize=16;" vertex="1" parent="1">
          <mxGeometry x="38.94" y="570" width="808.12" height="60" as="geometry" />
        </mxCell>
        <mxCell id="9blI58XOAfm6yzByAUCA-97" value="" style="shape=tableRow;horizontal=0;startSize=0;swimlaneHead=0;swimlaneBody=0;strokeColor=inherit;top=0;left=0;bottom=0;right=0;collapsible=0;dropTarget=0;fillColor=none;points=[[0,0.5],[1,0.5]];portConstraint=eastwest;fontSize=16;" vertex="1" parent="9blI58XOAfm6yzByAUCA-96">
          <mxGeometry width="808.12" height="60" as="geometry" />
        </mxCell>
        <mxCell id="9blI58XOAfm6yzByAUCA-98" value="&lt;u&gt;A13&lt;/u&gt;" style="shape=partialRectangle;html=1;whiteSpace=wrap;connectable=0;strokeColor=inherit;overflow=hidden;fillColor=none;top=0;left=0;bottom=0;right=0;pointerEvents=1;fontSize=16;" vertex="1" parent="9blI58XOAfm6yzByAUCA-97">
          <mxGeometry width="89" height="60" as="geometry">
            <mxRectangle width="89" height="60" as="alternateBounds" />
          </mxGeometry>
        </mxCell>
        <mxCell id="9blI58XOAfm6yzByAUCA-99" value="A14" style="shape=partialRectangle;html=1;whiteSpace=wrap;connectable=0;strokeColor=inherit;overflow=hidden;fillColor=none;top=0;left=0;bottom=0;right=0;pointerEvents=1;fontSize=16;" vertex="1" parent="9blI58XOAfm6yzByAUCA-97">
          <mxGeometry x="89" width="89" height="60" as="geometry">
            <mxRectangle width="89" height="60" as="alternateBounds" />
          </mxGeometry>
        </mxCell>
        <mxCell id="9blI58XOAfm6yzByAUCA-100" value="A11" style="shape=partialRectangle;html=1;whiteSpace=wrap;connectable=0;strokeColor=inherit;overflow=hidden;fillColor=none;top=0;left=0;bottom=0;right=0;pointerEvents=1;fontSize=16;" vertex="1" parent="9blI58XOAfm6yzByAUCA-97">
          <mxGeometry x="178" width="90" height="60" as="geometry">
            <mxRectangle width="90" height="60" as="alternateBounds" />
          </mxGeometry>
        </mxCell>
        <mxCell id="9blI58XOAfm6yzByAUCA-101" value="A4" style="shape=partialRectangle;html=1;whiteSpace=wrap;connectable=0;strokeColor=inherit;overflow=hidden;fillColor=none;top=0;left=0;bottom=0;right=0;pointerEvents=1;fontSize=16;" vertex="1" parent="9blI58XOAfm6yzByAUCA-97">
          <mxGeometry x="268" width="90" height="60" as="geometry">
            <mxRectangle width="90" height="60" as="alternateBounds" />
          </mxGeometry>
        </mxCell>
        <mxCell id="9blI58XOAfm6yzByAUCA-102" value="" style="shape=partialRectangle;html=1;whiteSpace=wrap;connectable=0;strokeColor=inherit;overflow=hidden;fillColor=none;top=0;left=0;bottom=0;right=0;pointerEvents=1;fontSize=16;" vertex="1" parent="9blI58XOAfm6yzByAUCA-97">
          <mxGeometry x="358" width="90" height="60" as="geometry">
            <mxRectangle width="90" height="60" as="alternateBounds" />
          </mxGeometry>
        </mxCell>
        <mxCell id="9blI58XOAfm6yzByAUCA-103" value="" style="shape=partialRectangle;html=1;whiteSpace=wrap;connectable=0;strokeColor=inherit;overflow=hidden;fillColor=none;top=0;left=0;bottom=0;right=0;pointerEvents=1;fontSize=16;" vertex="1" parent="9blI58XOAfm6yzByAUCA-97">
          <mxGeometry x="448" width="90" height="60" as="geometry">
            <mxRectangle width="90" height="60" as="alternateBounds" />
          </mxGeometry>
        </mxCell>
        <mxCell id="9blI58XOAfm6yzByAUCA-104" style="shape=partialRectangle;html=1;whiteSpace=wrap;connectable=0;strokeColor=inherit;overflow=hidden;fillColor=none;top=0;left=0;bottom=0;right=0;pointerEvents=1;fontSize=16;" vertex="1" parent="9blI58XOAfm6yzByAUCA-97">
          <mxGeometry x="538" width="90" height="60" as="geometry">
            <mxRectangle width="90" height="60" as="alternateBounds" />
          </mxGeometry>
        </mxCell>
        <mxCell id="9blI58XOAfm6yzByAUCA-105" value="" style="shape=partialRectangle;html=1;whiteSpace=wrap;connectable=0;strokeColor=inherit;overflow=hidden;fillColor=none;top=0;left=0;bottom=0;right=0;pointerEvents=1;fontSize=16;" vertex="1" parent="9blI58XOAfm6yzByAUCA-97">
          <mxGeometry x="628" width="90" height="60" as="geometry">
            <mxRectangle width="90" height="60" as="alternateBounds" />
          </mxGeometry>
        </mxCell>
        <mxCell id="9blI58XOAfm6yzByAUCA-106" value="" style="shape=partialRectangle;html=1;whiteSpace=wrap;connectable=0;strokeColor=inherit;overflow=hidden;fillColor=none;top=0;left=0;bottom=0;right=0;pointerEvents=1;fontSize=16;" vertex="1" parent="9blI58XOAfm6yzByAUCA-97">
          <mxGeometry x="718" width="90" height="60" as="geometry">
            <mxRectangle width="90" height="60" as="alternateBounds" />
          </mxGeometry>
        </mxCell>
        <mxCell id="9blI58XOAfm6yzByAUCA-107" value="E5" style="text;html=1;align=center;verticalAlign=middle;resizable=0;points=[];autosize=1;strokeColor=none;fillColor=none;" vertex="1" parent="1">
          <mxGeometry x="55" y="540" width="40" height="30" as="geometry" />
        </mxCell>
        <mxCell id="9blI58XOAfm6yzByAUCA-109" value="E6" style="text;html=1;align=center;verticalAlign=middle;resizable=0;points=[];autosize=1;strokeColor=none;fillColor=none;" vertex="1" parent="1">
          <mxGeometry x="55" y="660" width="40" height="30" as="geometry" />
        </mxCell>
        <mxCell id="9blI58XOAfm6yzByAUCA-110" value="" style="shape=table;startSize=0;container=1;collapsible=0;childLayout=tableLayout;fontSize=16;" vertex="1" parent="1">
          <mxGeometry x="40" y="690" width="808.12" height="60" as="geometry" />
        </mxCell>
        <mxCell id="9blI58XOAfm6yzByAUCA-111" value="" style="shape=tableRow;horizontal=0;startSize=0;swimlaneHead=0;swimlaneBody=0;strokeColor=inherit;top=0;left=0;bottom=0;right=0;collapsible=0;dropTarget=0;fillColor=none;points=[[0,0.5],[1,0.5]];portConstraint=eastwest;fontSize=16;" vertex="1" parent="9blI58XOAfm6yzByAUCA-110">
          <mxGeometry width="808.12" height="60" as="geometry" />
        </mxCell>
        <mxCell id="9blI58XOAfm6yzByAUCA-112" value="&lt;u&gt;A15&lt;/u&gt;" style="shape=partialRectangle;html=1;whiteSpace=wrap;connectable=0;strokeColor=inherit;overflow=hidden;fillColor=none;top=0;left=0;bottom=0;right=0;pointerEvents=1;fontSize=16;" vertex="1" parent="9blI58XOAfm6yzByAUCA-111">
          <mxGeometry width="89" height="60" as="geometry">
            <mxRectangle width="89" height="60" as="alternateBounds" />
          </mxGeometry>
        </mxCell>
        <mxCell id="9blI58XOAfm6yzByAUCA-113" value="A16" style="shape=partialRectangle;html=1;whiteSpace=wrap;connectable=0;strokeColor=inherit;overflow=hidden;fillColor=none;top=0;left=0;bottom=0;right=0;pointerEvents=1;fontSize=16;" vertex="1" parent="9blI58XOAfm6yzByAUCA-111">
          <mxGeometry x="89" width="89" height="60" as="geometry">
            <mxRectangle width="89" height="60" as="alternateBounds" />
          </mxGeometry>
        </mxCell>
        <mxCell id="9blI58XOAfm6yzByAUCA-114" value="" style="shape=partialRectangle;html=1;whiteSpace=wrap;connectable=0;strokeColor=inherit;overflow=hidden;fillColor=none;top=0;left=0;bottom=0;right=0;pointerEvents=1;fontSize=16;" vertex="1" parent="9blI58XOAfm6yzByAUCA-111">
          <mxGeometry x="178" width="90" height="60" as="geometry">
            <mxRectangle width="90" height="60" as="alternateBounds" />
          </mxGeometry>
        </mxCell>
        <mxCell id="9blI58XOAfm6yzByAUCA-115" value="" style="shape=partialRectangle;html=1;whiteSpace=wrap;connectable=0;strokeColor=inherit;overflow=hidden;fillColor=none;top=0;left=0;bottom=0;right=0;pointerEvents=1;fontSize=16;" vertex="1" parent="9blI58XOAfm6yzByAUCA-111">
          <mxGeometry x="268" width="90" height="60" as="geometry">
            <mxRectangle width="90" height="60" as="alternateBounds" />
          </mxGeometry>
        </mxCell>
        <mxCell id="9blI58XOAfm6yzByAUCA-116" value="" style="shape=partialRectangle;html=1;whiteSpace=wrap;connectable=0;strokeColor=inherit;overflow=hidden;fillColor=none;top=0;left=0;bottom=0;right=0;pointerEvents=1;fontSize=16;" vertex="1" parent="9blI58XOAfm6yzByAUCA-111">
          <mxGeometry x="358" width="90" height="60" as="geometry">
            <mxRectangle width="90" height="60" as="alternateBounds" />
          </mxGeometry>
        </mxCell>
        <mxCell id="9blI58XOAfm6yzByAUCA-117" value="" style="shape=partialRectangle;html=1;whiteSpace=wrap;connectable=0;strokeColor=inherit;overflow=hidden;fillColor=none;top=0;left=0;bottom=0;right=0;pointerEvents=1;fontSize=16;" vertex="1" parent="9blI58XOAfm6yzByAUCA-111">
          <mxGeometry x="448" width="90" height="60" as="geometry">
            <mxRectangle width="90" height="60" as="alternateBounds" />
          </mxGeometry>
        </mxCell>
        <mxCell id="9blI58XOAfm6yzByAUCA-118" style="shape=partialRectangle;html=1;whiteSpace=wrap;connectable=0;strokeColor=inherit;overflow=hidden;fillColor=none;top=0;left=0;bottom=0;right=0;pointerEvents=1;fontSize=16;" vertex="1" parent="9blI58XOAfm6yzByAUCA-111">
          <mxGeometry x="538" width="90" height="60" as="geometry">
            <mxRectangle width="90" height="60" as="alternateBounds" />
          </mxGeometry>
        </mxCell>
        <mxCell id="9blI58XOAfm6yzByAUCA-119" value="" style="shape=partialRectangle;html=1;whiteSpace=wrap;connectable=0;strokeColor=inherit;overflow=hidden;fillColor=none;top=0;left=0;bottom=0;right=0;pointerEvents=1;fontSize=16;" vertex="1" parent="9blI58XOAfm6yzByAUCA-111">
          <mxGeometry x="628" width="90" height="60" as="geometry">
            <mxRectangle width="90" height="60" as="alternateBounds" />
          </mxGeometry>
        </mxCell>
        <mxCell id="9blI58XOAfm6yzByAUCA-120" value="" style="shape=partialRectangle;html=1;whiteSpace=wrap;connectable=0;strokeColor=inherit;overflow=hidden;fillColor=none;top=0;left=0;bottom=0;right=0;pointerEvents=1;fontSize=16;" vertex="1" parent="9blI58XOAfm6yzByAUCA-111">
          <mxGeometry x="718" width="90" height="60" as="geometry">
            <mxRectangle width="90" height="60" as="alternateBounds" />
          </mxGeometry>
        </mxCell>
        <mxCell id="9blI58XOAfm6yzByAUCA-133" style="edgeStyle=orthogonalEdgeStyle;rounded=0;orthogonalLoop=1;jettySize=auto;html=1;exitX=0;exitY=0.5;exitDx=0;exitDy=0;entryX=0;entryY=0.5;entryDx=0;entryDy=0;" edge="1" parent="1" source="9blI58XOAfm6yzByAUCA-111" target="9blI58XOAfm6yzByAUCA-97">
          <mxGeometry relative="1" as="geometry" />
        </mxCell>
        <mxCell id="9blI58XOAfm6yzByAUCA-135" value="" style="endArrow=classic;html=1;rounded=0;exitX=0.265;exitY=0.948;exitDx=0;exitDy=0;exitPerimeter=0;edgeStyle=orthogonalEdgeStyle;startArrow=none;startFill=0;elbow=vertical;entryX=0.064;entryY=0.059;entryDx=0;entryDy=0;entryPerimeter=0;" edge="1" parent="1" source="9blI58XOAfm6yzByAUCA-46" target="9blI58XOAfm6yzByAUCA-73">
          <mxGeometry width="50" height="50" relative="1" as="geometry">
            <mxPoint x="260" y="170" as="sourcePoint" />
            <mxPoint x="170" y="298" as="targetPoint" />
            <Array as="points">
              <mxPoint x="254" y="180" />
              <mxPoint x="10" y="180" />
              <mxPoint x="10" y="298" />
              <mxPoint x="92" y="298" />
            </Array>
          </mxGeometry>
        </mxCell>
        <mxCell id="9blI58XOAfm6yzByAUCA-137" value="&lt;font style=&quot;font-size: 24px;&quot;&gt;Assumptions: A8 is a composite attribute referenced only as a whole. We do not need to mention A9 and A10&lt;/font&gt;" style="whiteSpace=wrap;html=1;" vertex="1" parent="1">
          <mxGeometry x="30" y="790" width="460" height="230" as="geometry" />
        </mxCell>
        <mxCell id="9blI58XOAfm6yzByAUCA-138" value="" style="endArrow=classic;html=1;rounded=0;edgeStyle=orthogonalEdgeStyle;exitX=0.272;exitY=0.985;exitDx=0;exitDy=0;exitPerimeter=0;" edge="1" parent="1" source="9blI58XOAfm6yzByAUCA-73">
          <mxGeometry width="50" height="50" relative="1" as="geometry">
            <mxPoint x="390" y="620" as="sourcePoint" />
            <mxPoint x="89" y="460" as="targetPoint" />
            <Array as="points">
              <mxPoint x="260" y="410" />
              <mxPoint x="90" y="410" />
              <mxPoint x="90" y="460" />
            </Array>
          </mxGeometry>
        </mxCell>
        <mxCell id="9blI58XOAfm6yzByAUCA-139" value="" style="endArrow=classic;html=1;rounded=0;strokeColor=default;align=center;verticalAlign=middle;fontFamily=Helvetica;fontSize=11;fontColor=default;labelBackgroundColor=default;edgeStyle=orthogonalEdgeStyle;exitX=0.387;exitY=0.985;exitDx=0;exitDy=0;exitPerimeter=0;entryX=1.25;entryY=0.97;entryDx=0;entryDy=0;entryPerimeter=0;" edge="1" parent="1" source="9blI58XOAfm6yzByAUCA-2" target="9blI58XOAfm6yzByAUCA-95">
          <mxGeometry width="50" height="50" relative="1" as="geometry">
            <mxPoint x="440" y="290" as="sourcePoint" />
            <mxPoint x="110" y="420" as="targetPoint" />
            <Array as="points">
              <mxPoint x="353" y="290" />
              <mxPoint x="870" y="290" />
              <mxPoint x="870" y="420" />
              <mxPoint x="105" y="420" />
            </Array>
          </mxGeometry>
        </mxCell>
        <mxCell id="9blI58XOAfm6yzByAUCA-140" value="" style="endArrow=classic;html=1;rounded=0;strokeColor=default;align=center;verticalAlign=middle;fontFamily=Helvetica;fontSize=11;fontColor=default;labelBackgroundColor=default;edgeStyle=orthogonalEdgeStyle;entryX=0.046;entryY=1.051;entryDx=0;entryDy=0;entryPerimeter=0;exitX=0.272;exitY=0.004;exitDx=0;exitDy=0;exitPerimeter=0;" edge="1" parent="1" source="9blI58XOAfm6yzByAUCA-97" target="9blI58XOAfm6yzByAUCA-85">
          <mxGeometry width="50" height="50" relative="1" as="geometry">
            <mxPoint x="190" y="551" as="sourcePoint" />
            <mxPoint x="210" y="500" as="targetPoint" />
            <Array as="points">
              <mxPoint x="259" y="551" />
              <mxPoint x="77" y="551" />
            </Array>
          </mxGeometry>
        </mxCell>
      </root>
    </mxGraphModel>
  </diagram>
</mxfile>
